HIERARCHY
ROOT Hips
{
	OFFSET -351.999878 -572.954773 89.312325
	CHANNELS 6 Xposition Yposition Zposition Zrotation Yrotation Xrotation
	JOINT Spine
	{
		OFFSET 0.000000 2.080078 8.814247
		CHANNELS 6 Xposition Yposition Zposition Zrotation Yrotation Xrotation
		JOINT Spine1
		{
			OFFSET 0.000000 0.000000 8.844139
			CHANNELS 6 Xposition Yposition Zposition Zrotation Yrotation Xrotation
			JOINT Spine2
			{
				OFFSET 0.000000 0.000000 11.682266
				CHANNELS 6 Xposition Yposition Zposition Zrotation Yrotation Xrotation
				JOINT Spine3
				{
					OFFSET 0.000000 0.000000 11.746696
					CHANNELS 6 Xposition Yposition Zposition Zrotation Yrotation Xrotation
					JOINT Neck
					{
						OFFSET 0.000000 0.000000 17.658264
						CHANNELS 6 Xposition Yposition Zposition Zrotation Yrotation Xrotation
						JOINT Neck1
						{
							OFFSET 0.000000 0.000000 5.101517
							CHANNELS 6 Xposition Yposition Zposition Zrotation Yrotation Xrotation
							JOINT Head
							{
								OFFSET 0.000000 0.000000 5.101517
								CHANNELS 6 Xposition Yposition Zposition Zrotation Yrotation Xrotation
								JOINT HeadEnd
								{
									OFFSET 0.000000 0.000000 11.655090
									CHANNELS 6 Xposition Yposition Zposition Zrotation Yrotation Xrotation
									End Site
									{
										OFFSET 0.000000 0.000000 0.100006
									}
								}
							}
						}
					}
					JOINT RightShoulder
					{
						OFFSET -2.625397 0.000000 11.175217
						CHANNELS 6 Xposition Yposition Zposition Zrotation Yrotation Xrotation
						JOINT RightArm
						{
							OFFSET 0.000000 0.000000 10.434708
							CHANNELS 6 Xposition Yposition Zposition Zrotation Yrotation Xrotation
							JOINT RightForeArm
							{
								OFFSET 0.000000 0.000000 29.628418
								CHANNELS 6 Xposition Yposition Zposition Zrotation Yrotation Xrotation
								JOINT RightHand
								{
									OFFSET 0.000000 0.000000 22.857605
									CHANNELS 6 Xposition Yposition Zposition Zrotation Yrotation Xrotation
									JOINT RightHandThumb1
									{
										OFFSET -2.867310 -2.944275 3.959564
										CHANNELS 6 Xposition Yposition Zposition Zrotation Yrotation Xrotation
										JOINT RightHandThumb2
										{
											OFFSET 0.000000 0.000000 3.350403
											CHANNELS 6 Xposition Yposition Zposition Zrotation Yrotation Xrotation
											JOINT RightHandThumb3
											{
												OFFSET 0.000000 0.000000 3.756516
												CHANNELS 6 Xposition Yposition Zposition Zrotation Yrotation Xrotation
												JOINT RightHandThumb4
												{
													OFFSET 0.000000 0.000000 3.147339
													CHANNELS 6 Xposition Yposition Zposition Zrotation Yrotation Xrotation
													End Site
													{
														OFFSET 0.000000 0.000000 0.100006
													}
												}
											}
										}
									}
									JOINT RightHandIndex1
									{
										OFFSET -0.086761 -2.345276 10.030899
										CHANNELS 6 Xposition Yposition Zposition Zrotation Yrotation Xrotation
										JOINT RightHandIndex2
										{
											OFFSET 0.000000 0.000000 4.061096
											CHANNELS 6 Xposition Yposition Zposition Zrotation Yrotation Xrotation
											JOINT RightHandIndex3
											{
												OFFSET 0.000000 0.000000 3.248871
												CHANNELS 6 Xposition Yposition Zposition Zrotation Yrotation Xrotation
												JOINT RightHandIndex4
												{
													OFFSET 0.000000 0.000000 2.639709
													CHANNELS 6 Xposition Yposition Zposition Zrotation Yrotation Xrotation
													End Site
													{
														OFFSET 0.000000 0.000000 0.100006
													}
												}
											}
										}
									}
									JOINT RightHandMiddle1
									{
										OFFSET 0.104095 -0.006775 9.502945
										CHANNELS 6 Xposition Yposition Zposition Zrotation Yrotation Xrotation
										JOINT RightHandMiddle2
										{
											OFFSET 0.000000 0.000000 4.568726
											CHANNELS 6 Xposition Yposition Zposition Zrotation Yrotation Xrotation
											JOINT RightHandMiddle3
											{
												OFFSET 0.000000 0.000000 3.654984
												CHANNELS 6 Xposition Yposition Zposition Zrotation Yrotation Xrotation
												JOINT RightHandMiddle4
												{
													OFFSET 0.000000 0.000000 2.741241
													CHANNELS 6 Xposition Yposition Zposition Zrotation Yrotation Xrotation
													End Site
													{
														OFFSET 0.000000 0.000000 0.100006
													}
												}
											}
										}
									}
									JOINT RightHandRing1
									{
										OFFSET 0.086761 2.267456 8.921707
										CHANNELS 6 Xposition Yposition Zposition Zrotation Yrotation Xrotation
										JOINT RightHandRing2
										{
											OFFSET 0.000000 0.000000 4.061096
											CHANNELS 6 Xposition Yposition Zposition Zrotation Yrotation Xrotation
											JOINT RightHandRing3
											{
												OFFSET 0.000000 0.000000 3.654984
												CHANNELS 6 Xposition Yposition Zposition Zrotation Yrotation Xrotation
												JOINT RightHandRing4
												{
													OFFSET 0.000000 0.000000 2.741241
													CHANNELS 6 Xposition Yposition Zposition Zrotation Yrotation Xrotation
													End Site
													{
														OFFSET 0.000000 0.000000 0.100006
													}
												}
											}
										}
									}
									JOINT RightHandPinky1
									{
										OFFSET -0.173492 4.467224 7.976990
										CHANNELS 6 Xposition Yposition Zposition Zrotation Yrotation Xrotation
										JOINT RightHandPinky2
										{
											OFFSET 0.000000 0.000000 3.350403
											CHANNELS 6 Xposition Yposition Zposition Zrotation Yrotation Xrotation
											JOINT RightHandPinky3
											{
												OFFSET 0.000000 0.000000 2.842758
												CHANNELS 6 Xposition Yposition Zposition Zrotation Yrotation Xrotation
												JOINT RightHandPinky4
												{
													OFFSET 0.000000 0.000000 2.639709
													CHANNELS 6 Xposition Yposition Zposition Zrotation Yrotation Xrotation
													End Site
													{
														OFFSET 0.000000 0.000000 0.100006
													}
												}
											}
										}
									}
									JOINT RightForeArmEnd
									{
										OFFSET 0.000000 0.000000 0.000000
										CHANNELS 6 Xposition Yposition Zposition Zrotation Yrotation Xrotation
										End Site
										{
											OFFSET 0.000000 0.000000 0.100006
										}
									}
								}
								JOINT RightArmEnd
								{
									OFFSET 0.000000 0.000000 0.000000
									CHANNELS 6 Xposition Yposition Zposition Zrotation Yrotation Xrotation
									End Site
									{
										OFFSET 0.000000 0.000000 0.100006
									}
								}
							}
						}
					}
					JOINT LeftShoulder
					{
						OFFSET 2.625397 0.000000 11.175217
						CHANNELS 6 Xposition Yposition Zposition Zrotation Yrotation Xrotation
						JOINT LeftArm
						{
							OFFSET 0.000000 0.000000 10.813629
							CHANNELS 6 Xposition Yposition Zposition Zrotation Yrotation Xrotation
							JOINT LeftForeArm
							{
								OFFSET 0.000000 0.000000 28.724777
								CHANNELS 6 Xposition Yposition Zposition Zrotation Yrotation Xrotation
								JOINT LeftHand
								{
									OFFSET 0.644379 0.328857 25.716171
									CHANNELS 6 Xposition Yposition Zposition Zrotation Yrotation Xrotation
									JOINT LeftHandThumb1
									{
										OFFSET 2.867310 -2.944275 3.959564
										CHANNELS 6 Xposition Yposition Zposition Zrotation Yrotation Xrotation
										JOINT LeftHandThumb2
										{
											OFFSET 0.000000 0.000000 3.350403
											CHANNELS 6 Xposition Yposition Zposition Zrotation Yrotation Xrotation
											JOINT LeftHandThumb3
											{
												OFFSET 0.000000 0.000000 3.756516
												CHANNELS 6 Xposition Yposition Zposition Zrotation Yrotation Xrotation
												JOINT LeftHandThumb4
												{
													OFFSET 0.000000 0.000000 3.100006
													CHANNELS 6 Xposition Yposition Zposition Zrotation Yrotation Xrotation
													End Site
													{
														OFFSET 0.000000 0.000000 0.100006
													}
												}
											}
										}
									}
									JOINT LeftHandIndex1
									{
										OFFSET 0.086761 -2.345276 10.030899
										CHANNELS 6 Xposition Yposition Zposition Zrotation Yrotation Xrotation
										JOINT LeftHandIndex2
										{
											OFFSET 0.000000 0.000000 4.061096
											CHANNELS 6 Xposition Yposition Zposition Zrotation Yrotation Xrotation
											JOINT LeftHandIndex3
											{
												OFFSET 0.000000 0.000000 3.248871
												CHANNELS 6 Xposition Yposition Zposition Zrotation Yrotation Xrotation
												JOINT LeftHandIndex4
												{
													OFFSET 0.000000 0.000000 2.639709
													CHANNELS 6 Xposition Yposition Zposition Zrotation Yrotation Xrotation
													End Site
													{
														OFFSET 0.000000 0.000000 0.100006
													}
												}
											}
										}
									}
									JOINT LeftHandMiddle1
									{
										OFFSET -0.104095 -0.006775 9.502945
										CHANNELS 6 Xposition Yposition Zposition Zrotation Yrotation Xrotation
										JOINT LeftHandMiddle2
										{
											OFFSET 0.000000 0.000000 4.568726
											CHANNELS 6 Xposition Yposition Zposition Zrotation Yrotation Xrotation
											JOINT LeftHandMiddle3
											{
												OFFSET 0.000000 0.000000 3.654984
												CHANNELS 6 Xposition Yposition Zposition Zrotation Yrotation Xrotation
												JOINT LeftHandMiddle4
												{
													OFFSET 0.000000 0.000000 2.741241
													CHANNELS 6 Xposition Yposition Zposition Zrotation Yrotation Xrotation
													End Site
													{
														OFFSET 0.000000 0.000000 0.100006
													}
												}
											}
										}
									}
									JOINT LeftHandRing1
									{
										OFFSET -0.086761 2.267456 8.921707
										CHANNELS 6 Xposition Yposition Zposition Zrotation Yrotation Xrotation
										JOINT LeftHandRing2
										{
											OFFSET 0.000000 0.000000 4.061096
											CHANNELS 6 Xposition Yposition Zposition Zrotation Yrotation Xrotation
											JOINT LeftHandRing3
											{
												OFFSET 0.000000 0.000000 3.654984
												CHANNELS 6 Xposition Yposition Zposition Zrotation Yrotation Xrotation
												JOINT LeftHandRing4
												{
													OFFSET 0.000000 0.000000 2.741241
													CHANNELS 6 Xposition Yposition Zposition Zrotation Yrotation Xrotation
													End Site
													{
														OFFSET 0.000000 0.000000 0.100006
													}
												}
											}
										}
									}
									JOINT LeftHandPinky1
									{
										OFFSET 0.173492 4.467224 7.976990
										CHANNELS 6 Xposition Yposition Zposition Zrotation Yrotation Xrotation
										JOINT LeftHandPinky2
										{
											OFFSET 0.000000 0.000000 3.350403
											CHANNELS 6 Xposition Yposition Zposition Zrotation Yrotation Xrotation
											JOINT LeftHandPinky3
											{
												OFFSET 0.000000 0.000000 2.842758
												CHANNELS 6 Xposition Yposition Zposition Zrotation Yrotation Xrotation
												JOINT LeftHandPinky4
												{
													OFFSET 0.000000 0.000000 2.639709
													CHANNELS 6 Xposition Yposition Zposition Zrotation Yrotation Xrotation
													End Site
													{
														OFFSET 0.000000 0.000000 0.100006
													}
												}
											}
										}
									}
									JOINT LeftForeArmEnd
									{
										OFFSET 0.000000 0.000000 0.000000
										CHANNELS 6 Xposition Yposition Zposition Zrotation Yrotation Xrotation
										End Site
										{
											OFFSET 0.000000 0.000000 0.100006
										}
									}
								}
								JOINT LeftArmEnd
								{
									OFFSET 0.000000 0.000000 0.000000
									CHANNELS 6 Xposition Yposition Zposition Zrotation Yrotation Xrotation
									End Site
									{
										OFFSET 0.000000 0.000000 0.100006
									}
								}
							}
						}
					}
				}
			}
		}
	}
	JOINT RightUpLeg
	{
		OFFSET -11.289948 0.000000 0.000000
		CHANNELS 6 Xposition Yposition Zposition Zrotation Yrotation Xrotation
		JOINT RightLeg
		{
			OFFSET 0.000000 0.000000 -38.200329
			CHANNELS 6 Xposition Yposition Zposition Zrotation Yrotation Xrotation
			JOINT RightFoot
			{
				OFFSET 0.000000 0.000000 -39.900856
				CHANNELS 6 Xposition Yposition Zposition Zrotation Yrotation Xrotation
				JOINT RightToeBase
				{
					OFFSET 0.000000 -15.261658 0.000002
					CHANNELS 6 Xposition Yposition Zposition Zrotation Yrotation Xrotation
					JOINT RightToeBaseEnd
					{
						OFFSET 0.000000 -7.370728 0.000000
						CHANNELS 6 Xposition Yposition Zposition Zrotation Yrotation Xrotation
						End Site
						{
							OFFSET 0.000000 0.000000 0.100000
						}
					}
				}
				JOINT RightLegEnd
				{
					OFFSET 0.000000 0.000000 0.000000
					CHANNELS 6 Xposition Yposition Zposition Zrotation Yrotation Xrotation
					End Site
					{
						OFFSET 0.000000 0.000000 0.100000
					}
				}
			}
			JOINT RightUpLegEnd
			{
				OFFSET 0.000000 0.000000 0.000000
				CHANNELS 6 Xposition Yposition Zposition Zrotation Yrotation Xrotation
				End Site
				{
					OFFSET 0.000000 0.000000 0.099998
				}
			}
		}
	}
	JOINT LeftUpLeg
	{
		OFFSET 11.315674 0.000000 0.000000
		CHANNELS 6 Xposition Yposition Zposition Zrotation Yrotation Xrotation
		JOINT LeftLeg
		{
			OFFSET 0.000000 0.000000 -38.200329
			CHANNELS 6 Xposition Yposition Zposition Zrotation Yrotation Xrotation
			JOINT LeftFoot
			{
				OFFSET 0.000000 0.000000 -39.900856
				CHANNELS 6 Xposition Yposition Zposition Zrotation Yrotation Xrotation
				JOINT LeftToeBase
				{
					OFFSET 0.000000 -15.261658 0.000002
					CHANNELS 6 Xposition Yposition Zposition Zrotation Yrotation Xrotation
					JOINT LeftToeBaseEnd
					{
						OFFSET 0.000000 -7.539978 0.000000
						CHANNELS 6 Xposition Yposition Zposition Zrotation Yrotation Xrotation
						End Site
						{
							OFFSET 0.000000 0.000000 0.100000
						}
					}
				}
				JOINT LeftLegEnd
				{
					OFFSET 0.000000 0.000000 0.000000
					CHANNELS 6 Xposition Yposition Zposition Zrotation Yrotation Xrotation
					End Site
					{
						OFFSET 0.000000 0.000000 0.100000
					}
				}
			}
			JOINT LeftUpLegEnd
			{
				OFFSET 0.000000 0.000000 0.000000
				CHANNELS 6 Xposition Yposition Zposition Zrotation Yrotation Xrotation
				End Site
				{
					OFFSET 0.000000 0.000000 0.099998
				}
			}
		}
	}
}
MOTION
Frames: 2
Frame Time: 0.016667
-19.263763 -5.463928 85.609390 26.901591 2.370322 -15.590241 0.000010 2.080092 8.814257 -0.617389 -4.893734 7.294794 -0.000012 0.000021 8.844151 -0.040776 -0.636025 1.814778 0.000005 0.000019 11.682281 3.871194 2.142945 6.925466 -0.000009 -0.000021 11.746696 2.574421 4.717288 3.498862 0.000038 0.000017 17.658257 -18.958735 -26.979744 1.863897 0.000003 0.000010 5.101542 -7.673825 -3.161333 -10.063225 0.000002 -0.000010 5.101528 0.433555 -3.742824 -12.084296 -0.000003 0.000001 11.655089 0.000000 -0.000001 0.000001 -2.625370 -0.000010 11.175226 25.933392 -80.374873 0.827405 0.000000 -0.000008 10.434710 -44.789847 -4.058442 64.169655 0.000019 -0.000006 29.628462 2.320987 0.944491 100.611104 0.000061 0.000051 22.857628 -78.196739 16.190933 -29.377282 -2.867302 -2.944290 3.959541 32.267364 -14.071146 56.625465 0.000027 0.000004 3.350380 -5.725509 4.732095 -10.867876 0.000011 0.000008 3.756516 -3.879383 3.402860 -7.492636 0.000002 -0.000008 3.147334 0.000000 -0.000001 0.000003 -0.086765 -2.345249 10.030891 -5.906407 16.972434 10.893181 0.000016 -0.000028 4.061094 0.663770 -0.000351 0.000148 -0.000020 0.000015 3.248844 0.154310 -0.000001 -0.000022 -0.000014 0.000017 2.639700 -0.000002 -0.000001 -0.000003 0.104078 -0.006784 9.502953 -0.531951 17.526755 7.429554 -0.000036 0.000029 4.568716 0.545624 0.000013 -0.000038 -0.000010 -0.000043 3.654980 0.039520 -0.000002 -0.005661 -0.000010 0.000009 2.741242 -0.000003 -0.000002 0.000000 0.086754 2.267452 8.921711 8.602400 20.329061 5.068152 -0.000011 -0.000023 4.061074 -1.038068 -0.019988 0.000200 0.000007 -0.000002 3.654982 -0.133070 0.010492 0.000889 -0.000004 -0.000006 2.741228 0.000001 0.000002 -0.000002 -0.173485 4.467245 7.976963 18.571884 22.919238 6.166371 0.000002 -0.000013 3.350403 -2.129054 0.000007 0.000023 0.000039 -0.000027 2.842756 -0.217347 0.000002 -0.000151 -0.000010 -0.000001 2.639691 -0.000000 -0.000002 0.000001 -0.000007 0.000002 -0.000028 0.000002 -0.000001 0.000002 -0.000009 -0.000011 0.000003 0.000002 -0.000001 -0.000001 2.625397 -0.000004 11.175199 -20.476432 68.179843 -0.115723 0.000000 0.000038 10.813641 18.780515 29.063131 62.592058 -0.000011 0.000057 28.724787 -5.911027 1.151259 119.511467 0.644379 0.328831 25.716125 62.725343 -31.831926 -25.472668 2.867249 -2.944275 3.959541 -33.134207 11.752129 60.762927 -0.000024 -0.000046 3.350437 0.889507 -0.862346 -1.776136 -0.000021 0.000009 3.756524 0.614869 -0.601793 -1.231980 -0.000019 -0.000012 3.100011 0.000001 -0.000000 0.000001 0.086730 -2.345253 10.030884 -19.486576 -39.049196 29.933803 -0.000029 0.000002 4.061107 0.690368 0.000159 -0.000179 -0.000021 -0.000027 3.248891 0.179090 0.000006 -0.000003 -0.000038 0.000001 2.639734 -0.000001 0.000001 -0.000000 -0.104081 -0.006744 9.502930 -13.836369 -41.612904 22.202163 -0.000042 0.000023 4.568750 0.713871 -0.000140 -0.000425 -0.000035 -0.000078 3.655003 0.188214 -0.000002 -0.000019 -0.000038 -0.000003 2.741285 -0.000000 -0.000003 0.000004 -0.086765 2.267476 8.921692 -3.353603 -43.747522 9.857282 -0.000025 -0.000025 4.061099 -1.245989 0.000279 0.000263 -0.000038 0.000007 3.654985 -0.191889 -0.000005 0.001221 -0.000032 -0.000009 2.741249 0.000000 0.000002 -0.000001 0.173500 4.467137 7.976973 8.569507 -40.694202 -1.669745 -0.000021 -0.000007 3.350394 -2.116113 -0.000000 0.000001 -0.000002 -0.000012 2.842757 -0.098602 0.000004 -0.000144 -0.000024 0.000006 2.639706 -0.000000 0.000002 -0.000002 -0.000026 -0.000017 -0.000028 0.000002 -0.000001 -0.000002 -0.000034 0.000016 -0.000003 -0.000002 -0.000005 -0.000001 -11.289912 -0.000008 0.000008 -21.124691 14.409648 14.751832 0.000020 0.000087 -38.200287 -1.226706 0.575824 25.142029 -0.000002 -0.000068 -39.900875 -38.407373 -16.241008 20.732025 0.000011 -15.261694 0.000027 1.154003 3.206869 -17.041399 -0.000010 -7.370654 0.000000 -0.000002 0.000001 0.000001 -0.000010 0.000010 -0.000001 -0.000002 -0.000000 0.000000 0.000035 0.000003 -0.000006 -0.000000 -0.000000 0.000002 11.315689 0.000003 0.000000 -15.373847 -7.124577 -3.469792 0.000000 0.000014 -38.200275 1.063400 -0.708073 33.653951 -0.000012 0.000005 -39.900841 -0.441651 2.734092 12.145719 0.000033 -15.261652 0.000021 -1.537171 -0.235694 -20.994914 0.000010 -7.539979 -0.000001 0.000000 0.000000 0.000000 0.000011 0.000002 -0.000000 -0.000000 0.000000 0.000000 -0.000023 -0.000003 -0.000001 0.000001 0.000000 0.000000 
-18.137329 -5.456970 85.428497 26.923445 1.732445 -15.677671 0.000013 2.080105 8.814255 -0.561463 -4.617301 7.222046 -0.000008 -0.000004 8.844145 -0.004889 -0.696319 1.702996 -0.000000 -0.000016 11.682281 4.429414 2.344212 6.951542 -0.000015 0.000009 11.746687 2.824851 4.902823 3.505996 -0.000015 0.000017 17.658255 -19.306804 -27.255549 2.223835 -0.000010 -0.000006 5.101505 -7.991180 -3.224500 -10.021635 0.000011 0.000021 5.101534 0.413286 -3.935913 -12.028081 0.000002 -0.000001 11.655081 0.000000 -0.000004 -0.000000 -2.625401 -0.000010 11.175214 26.110251 -80.463761 0.863805 0.000008 0.000000 10.434700 -44.720489 -4.030855 64.726889 0.000045 -0.000021 29.628407 2.293365 0.953109 100.541211 0.000092 0.000080 22.857590 -78.138983 15.802751 -29.315701 -2.867294 -2.944275 3.959549 32.315507 -13.910450 56.898471 0.000002 -0.000004 3.350374 -5.383816 4.498538 -10.250514 0.000000 0.000010 3.756489 -3.652158 3.227396 -7.069995 -0.000008 0.000001 3.147344 -0.000000 0.000000 0.000003 -0.086758 -2.345261 10.030937 -5.849147 17.347306 11.028034 0.000034 -0.000021 4.061095 0.665483 -0.051225 -0.000441 -0.000011 -0.000023 3.248868 0.155927 0.028392 0.000055 -0.000022 0.000009 2.639714 -0.000003 0.000002 -0.000001 0.104078 -0.006793 9.502960 -0.470952 17.878935 7.480403 -0.000034 0.000025 4.568716 0.546781 0.000024 -0.000039 -0.000001 -0.000068 3.654986 0.040521 -0.000002 -0.005758 -0.000010 0.000002 2.741220 -0.000001 0.000000 -0.000001 0.086761 2.267471 8.921741 8.693058 20.712064 5.062962 -0.000005 0.000018 4.061091 -1.039090 -0.000002 -0.000161 0.000000 0.000001 3.654980 -0.133553 0.000001 0.001008 0.000024 -0.000002 2.741240 -0.000000 -0.000001 0.000001 -0.173470 4.467260 7.977024 18.710822 23.372831 6.094699 -0.000001 -0.000026 3.350409 -2.130281 0.000039 0.000019 0.000022 -0.000023 2.842746 -0.218018 0.000004 -0.000150 0.000019 0.000005 2.639692 -0.000001 0.000002 -0.000000 0.000037 0.000008 0.000011 -0.000002 0.000000 -0.000001 -0.000040 -0.000008 0.000011 0.000002 -0.000002 0.000001 2.625389 0.000031 11.175240 -20.413912 68.296004 -0.106528 0.000023 0.000015 10.813637 19.223021 28.700991 63.323005 -0.000036 -0.000004 28.724766 -5.730235 1.135299 119.716810 0.644402 0.328804 25.716141 62.176394 -31.540915 -24.692587 2.867256 -2.944290 3.959503 -33.066903 11.900326 60.484180 -0.000052 -0.000089 3.350430 1.191949 -1.143601 -2.371389 -0.000024 -0.000012 3.756527 0.822691 -0.799428 -1.643931 -0.000031 0.000009 3.099995 -0.000001 -0.000000 0.000001 0.086720 -2.345261 10.030930 -19.572976 -39.267198 30.520639 -0.000053 0.000008 4.061085 0.692401 0.000271 -0.000181 -0.000018 -0.000016 3.248873 0.180994 0.000012 -0.000004 -0.000018 -0.000003 2.639736 -0.000000 -0.000003 -0.000003 -0.104085 -0.006741 9.502930 -13.965367 -41.940316 22.645368 -0.000009 -0.000090 4.568738 0.715525 -0.000241 -0.000428 0.000004 -0.000071 3.654986 0.189606 -0.000002 -0.000017 -0.000032 0.000016 2.741266 -0.000001 0.000000 -0.000001 -0.086792 2.267443 8.921700 -3.460452 -44.203338 10.079991 -0.000046 0.000022 4.061118 -1.247555 0.000149 0.000271 -0.000065 -0.000029 3.655005 -0.193121 -0.000006 0.001273 -0.000022 0.000005 2.741249 -0.000001 -0.000002 0.000001 0.173500 4.467136 7.976991 8.547117 -41.167428 -1.752306 -0.000020 -0.000023 3.350393 -2.117736 -0.000000 -0.000001 -0.000038 0.000006 2.842748 -0.099967 0.000003 -0.000145 -0.000018 -0.000011 2.639700 0.000001 -0.000000 -0.000001 -0.000004 0.000016 -0.000014 -0.000003 0.000003 0.000000 -0.000008 -0.000072 -0.000004 0.000003 0.000002 0.000000 -11.289902 0.000011 -0.000008 -20.392267 15.636835 13.436871 0.000015 0.000048 -38.200329 -1.077852 0.560833 27.485938 -0.000021 -0.000063 -39.900856 -38.778020 -16.326589 21.284191 0.000013 -15.261711 0.000035 1.103832 2.597115 -17.539917 -0.000007 -7.370664 0.000000 -0.000000 0.000001 0.000001 -0.000004 0.000010 0.000002 -0.000002 0.000000 0.000000 0.000029 -0.000002 -0.000010 0.000000 -0.000000 -0.000000 11.315669 0.000000 0.000004 -14.798935 -5.792886 -3.796224 -0.000017 0.000015 -38.200321 0.975379 -0.669482 34.461644 -0.000016 0.000020 -39.900856 -0.445800 2.155802 11.390407 0.000022 -15.261689 0.000026 -1.578379 -0.093049 -20.693375 0.000009 -7.539975 -0.000002 -0.000000 0.000000 0.000000 0.000002 0.000072 -0.000001 -0.000002 0.000000 -0.000002 -0.000002 0.000046 0.000001 0.000002 0.000000 -0.000001 
